<?xml version="1.0" encoding="UTF-8" standalone="no"?><!DOCTYPE svg PUBLIC "-//W3C//DTD SVG 1.1//EN" "http://www.w3.org/Graphics/SVG/1.1/DTD/svg11.dtd"><svg width="100%" height="100%" viewBox="0 0 1013 1013" version="1.1" xmlns="http://www.w3.org/2000/svg" xmlns:xlink="http://www.w3.org/1999/xlink" xml:space="preserve" xmlns:serif="http://www.serif.com/" style="fill-rule:evenodd;clip-rule:evenodd;stroke-linejoin:round;stroke-miterlimit:2;"><g><path d="M1012.8,0c-0,0 -490.218,214.015 -641.125,364.922c-76.22,76.22 -76.22,199.983 -0,276.203c76.22,76.22 199.982,76.22 276.202,-0c150.907,-150.907 364.923,-641.125 364.923,-641.125Z" style="fill:#dc2dc7;"/><path d="M0,1012.8c0,-0 490.218,-214.016 641.125,-364.923c76.22,-76.22 76.22,-199.982 -0,-276.202c-76.22,-76.22 -199.983,-76.22 -276.203,-0c-150.907,150.907 -364.922,641.125 -364.922,641.125Z" style="fill:#dc2dc7;"/><path d="M712.757,679.615c0,-0 134.419,74.156 179.114,118.851c16.629,16.629 16.629,43.632 -0,60.262c-16.63,16.63 -43.633,16.63 -60.263,-0c-44.694,-44.695 -118.851,-179.113 -118.851,-179.113Z" style="fill:#dc2dc7;"/><circle cx="517.051" cy="511.132" r="286.447" style="fill:#382246;"/><path d="M126.562,837.703c86.383,86.383 316.636,-3.606 513.861,-200.831c197.225,-197.225 287.214,-427.478 200.831,-513.861c-57.466,109.296 -167.843,261.752 -310.391,404.301c-142.549,142.548 -295.005,252.925 -404.301,310.391Z" style="fill:#dc2dc7;"/><path d="M365.14,331.997c-0,0 -74.156,-134.418 -118.851,-179.113c-16.63,-16.63 -43.633,-16.63 -60.262,-0c-16.63,16.63 -16.63,43.632 -0,60.262c44.694,44.695 179.113,118.851 179.113,118.851Z" style="fill:#dc2dc7;"/><path d="M457.808,452.218c111.63,-111.63 229.262,-175.257 262.521,-141.997c33.26,33.26 -30.366,150.892 -141.996,262.521c-111.63,111.63 -229.262,175.257 -262.521,141.997c-33.26,-33.26 30.367,-150.892 141.996,-262.521Z" style="fill:#382246;"/></g></svg>