<?xml version="1.0" encoding="UTF-8" standalone="no"?><!DOCTYPE svg PUBLIC "-//W3C//DTD SVG 1.1//EN" "http://www.w3.org/Graphics/SVG/1.1/DTD/svg11.dtd"><svg width="100%" height="100%" viewBox="0 0 436 436" version="1.1" xmlns="http://www.w3.org/2000/svg" xmlns:xlink="http://www.w3.org/1999/xlink" xml:space="preserve" xmlns:serif="http://www.serif.com/" style="fill-rule:evenodd;clip-rule:evenodd;stroke-linecap:round;stroke-linejoin:round;"><path d="M217.708,20.75c-108.583,-0 -196.958,88.417 -196.958,196.958c-0,108.542 88.417,196.959 196.958,196.959c108.542,-0 196.959,-88.417 196.959,-196.959c-0,-108.541 -88.417,-196.958 -196.959,-196.958Zm-0.291,17.5c6.959,0.18 12.585,5.974 12.583,12.958c-0,7.109 -5.85,12.959 -12.958,12.959c-7.109,-0 -12.959,-5.85 -12.959,-12.959c0,-0.001 0,-0.003 0,-0.005c0,-7.109 5.85,-12.958 12.959,-12.958c0.125,-0 0.25,0.001 0.375,0.005Zm29.666,21.333c46.016,8.619 85.978,37.08 109.167,77.75l-15.292,34.5c-2.625,5.959 0.084,12.959 6,15.625l29.417,13.042c0.913,9.195 1.024,18.452 0.333,27.667l-16.375,-0c-1.625,-0 -2.291,1.083 -2.291,2.666l-0,7.5c-0,17.667 -9.959,21.542 -18.709,22.5c-8.333,0.959 -17.541,-3.5 -18.708,-8.583c-4.917,-27.625 -13.083,-33.5 -26,-43.708c16.042,-10.167 32.708,-25.209 32.708,-45.292c0,-21.708 -14.875,-35.375 -25,-42.083c-14.25,-9.375 -30,-11.25 -34.25,-11.25l-169.166,-0c23.387,-26.127 54.752,-43.824 89.208,-50.334l19.958,20.917c4.5,4.708 11.959,4.917 16.667,0.375l22.333,-21.292Zm-184.166,95.917c6.966,0.202 12.586,5.989 12.583,12.958c-0,7.109 -5.85,12.959 -12.958,12.959c-7.109,-0 -12.959,-5.85 -12.959,-12.959c0,-0.001 0,-0.003 0,-0.005c0,-7.109 5.85,-12.958 12.959,-12.958c0.125,-0 0.25,0.001 0.375,0.005Zm308.958,0.583c6.966,0.202 12.586,5.989 12.583,12.959c0,7.108 -5.849,12.958 -12.958,12.958c-7.109,-0 -12.958,-5.85 -12.958,-12.958c-0,-0.002 -0,-0.004 -0,-0.006c-0,-7.108 5.849,-12.958 12.958,-12.958c0.125,-0 0.25,0.002 0.375,0.005Zm-284.542,2.084l22.584,-0l-0,101.833l-45.584,0c-5.629,-19.769 -7.384,-40.44 -5.166,-60.875l27.916,-12.417c5.959,-2.666 8.667,-9.625 6,-15.583l-5.75,-12.958Zm94.25,1.083l53.792,-0c2.792,-0 19.625,3.208 19.625,15.833c0,10.459 -12.917,14.209 -23.542,14.209l-49.916,-0l0.041,-30.042Zm0,73.167l41.209,-0c3.75,-0 20.125,1.083 25.333,22c1.625,6.416 5.25,27.333 7.708,34.041c2.459,7.5 12.417,22.5 23.042,22.5l67.25,0c-4.507,6.036 -9.436,11.745 -14.75,17.084l-27.375,-5.875c-6.375,-1.375 -12.667,2.708 -14.042,9.083l-6.5,30.333c-42.273,19.15 -90.867,18.921 -132.958,-0.625l-6.5,-30.333c-1.375,-6.375 -7.625,-10.458 -14,-9.083l-26.792,5.75c-4.971,-5.129 -9.593,-10.586 -13.833,-16.334l130.292,0c1.458,0 2.458,-0.25 2.458,-1.625l-0,-46.083c-0,-1.333 -1,-1.625 -2.458,-1.625l-38.125,-0l0.041,-29.208Zm-60.125,105.541c6.967,0.202 12.587,5.989 12.584,12.959c-0,7.108 -5.85,12.958 -12.959,12.958c-7.108,-0 -12.958,-5.85 -12.958,-12.958c-0,-0.002 -0,-0.004 -0,-0.006c-0,-7.108 5.85,-12.958 12.958,-12.958c0.125,-0 0.25,0.002 0.375,0.005Zm191.875,0.584c6.967,0.201 12.587,5.989 12.584,12.958c-0,7.109 -5.85,12.958 -12.959,12.958c-7.108,0 -12.958,-5.849 -12.958,-12.958c-0,-0.002 -0,-0.004 -0,-0.005c-0,-7.109 5.85,-12.959 12.958,-12.959c0.125,0 0.25,0.002 0.375,0.006Z" style="fill:#fff;fill-rule:nonzero;"/><path d="M403.667,217.708c-0,102.014 -83.945,185.959 -185.959,185.959c-102.013,-0 -185.958,-83.945 -185.958,-185.959c-0,-102.013 83.945,-185.958 185.958,-185.958c102.014,-0 185.959,83.945 185.959,185.958Zm-3.5,-17.958l29,17.958l-29,17.959l24.916,23.291l-31.916,11.959l19.916,27.708l-33.708,5.5l14.167,31.083l-34.125,-1.208l7.833,33.25l-33.25,-7.833l1.208,34.125l-31.083,-14.167l-5.5,33.708l-27.708,-19.916l-11.959,31.916l-23.291,-24.916l-17.959,29l-17.958,-29l-23.292,24.916l-11.958,-31.916l-27.708,19.916l-5.5,-33.708l-31.084,14.167l1.209,-34.125l-33.25,7.833l7.833,-33.25l-34.125,1.208l14.167,-31.083l-33.709,-5.5l19.917,-27.708l-31.917,-11.959l24.917,-23.291l-29,-17.959l29,-17.958l-24.917,-23.292l31.917,-11.958l-19.917,-27.708l33.709,-5.5l-14.167,-31.084l34.125,1.209l-7.833,-33.25l33.25,7.833l-1.209,-34.125l31.084,14.167l5.5,-33.709l27.708,19.917l11.958,-31.917l23.292,24.917l17.958,-29l17.959,29l23.291,-24.917l11.959,31.917l27.708,-19.917l5.5,33.709l31.083,-14.167l-1.208,34.125l33.25,-7.833l-7.833,33.25l34.125,-1.209l-14.167,31.084l33.708,5.5l-19.916,27.708l31.916,11.958l-24.916,23.292Z" style="fill:#fff;stroke:#fff;stroke-width:12.5px;"/></svg>