<?xml version="1.0" encoding="UTF-8" standalone="no"?><!DOCTYPE svg PUBLIC "-//W3C//DTD SVG 1.1//EN" "http://www.w3.org/Graphics/SVG/1.1/DTD/svg11.dtd"><svg width="100%" height="100%" viewBox="0 0 685 782" version="1.1" xmlns="http://www.w3.org/2000/svg" xmlns:xlink="http://www.w3.org/1999/xlink" xml:space="preserve" xmlns:serif="http://www.serif.com/" style="fill-rule:evenodd;clip-rule:evenodd;stroke-linecap:round;stroke-linejoin:round;stroke-miterlimit:1.5;"><g id="First"></g><g id="SpaceHelmet"><path d="M23.13,258.288c-0,-1.562 0.078,3.125 -0,4.685c-0.145,2.905 -0.088,5.851 -0.67,8.701c-1.655,8.111 -4.45,15.966 -6.023,24.094c-5.406,27.935 -3.789,28.594 -5.354,56.89c-0.533,9.615 -1.642,10.417 -0.67,20.079c1.081,10.737 3.072,21.375 4.016,32.126c2.095,23.857 -0.504,23.924 2.869,47.519c8.09,56.601 22.253,115.254 57.516,161.609c15.556,20.45 35.787,36.241 55.816,52.035c17.96,14.163 36.444,27.845 56.012,39.742c28.467,17.308 61.085,28.663 92.581,38.547c37.035,11.622 75.154,22.327 113.895,26.667c34.519,3.867 35.093,2.25 69.741,3.666c15.512,0.634 37.916,3.16 53.491,1.463c47.925,-5.223 97.111,-24.78 126.94,-64.233c7.798,-10.314 11.073,-25.623 3.865,-37.191c-2.514,-4.035 -9.696,-8.914 -12.963,-12.147c-1.168,-1.157 -3.615,-4.694 -2.677,-6.693c3.157,-6.727 9.12,-10.402 13.143,-16.436c3.622,-5.433 7.059,-11.042 9.741,-16.995c1.91,-4.24 1.875,-12.313 1.88,-16.766c0.017,-15.527 -0.11,-31.066 -0.723,-46.582c-0.21,-5.322 -2.832,-10.564 -3.742,-15.811c-0.152,-0.88 -4.99,-15.563 -5.881,-15.528c-14.101,0.543 -13.444,29.299 -20.503,38.401c-8.875,11.445 -18.699,24.447 -33.209,29.168c-6.671,2.17 -17.319,2.538 -24.131,3.815c-13.853,2.599 -16.104,5.207 -30.433,4.748c-29.824,-0.956 -29.71,0.243 -59.409,-1.904c-19.865,-1.437 -20.192,-0.65 -40.045,-1.288c-6.979,-0.224 -13.892,-3.963 -20.861,-4.389c-3.34,-0.204 -9.79,-1.238 -13.039,-2.039c-13.155,-3.244 -22.77,-6.362 -35.819,-10.008c-2.159,-0.604 -9.624,-3.238 -11.378,-4.016c-10.172,-4.512 -52.164,-19.962 -60.244,-22.417c-18.174,-5.523 -30.145,-10.566 -46.045,-20.705c-6.289,-4.011 -10.588,-8.887 -16.307,-13.675c-9.865,-8.259 -13.683,-13.809 -22.64,-22.849c-10.149,-10.243 -19.894,-19 -26.535,-32.453c-3.205,-6.493 -9.722,-12.309 -12.284,-19.082c-0.651,-1.721 -2.4,-3.799 -3.383,-5.354c-3.064,-4.85 -5.421,-8.753 -8.562,-13.553c-6.047,-9.239 -8.66,-22.835 -11.308,-33.58c-0.106,-0.428 -0.111,0.403 -0,0c0.671,-2.44 -0.29,-11.118 -1.505,-19.143c-1.144,-7.558 -2.204,-19.29 -2.021,-26.932c0.513,-21.509 -1.145,-47.938 -11.631,-68.155c-11.293,-21.773 -33.555,-35.674 -57.211,-38.959c-8.865,-1.231 -14.939,-4.299 -25.513,-3.543c-8.424,0.603 -12.548,5.176 -20.764,7.132c-0.715,0.171 -9.354,10.436 -9.354,11.752" style="fill:#fff;stroke:#000;stroke-width:9.17px;"/><path d="M634.783,650.787c-11.094,11.094 -27.539,19.427 -41.763,23.945c-12.08,3.837 -24.085,5.841 -36.661,7.897c-25.354,4.145 -49.284,2.471 -74.642,0.382c-19.184,-1.58 -41.581,-3.814 -60.429,-7.949c-12.45,-2.731 -21.527,-5.593 -33.661,-9.244c-7.047,-2.12 -13.436,-5.027 -20.417,-7.354c-4.317,-1.439 -8.318,-3.714 -12.315,-5.89c-1.302,-0.709 -4.45,-3.421 -6.283,-3.421" style="fill:#fff;stroke:#000;stroke-width:9.17px;"/><path d="M607.43,169.218c-11.347,-11.347 -11.528,-28.32 -19.237,-41.647c-13.731,-23.734 -33.215,-43.795 -55.31,-59.859c-3.779,-2.748 -7.743,-4.246 -12.471,-4.133c-6.114,0.145 -14.125,3.886 -19.676,-0.983c-10.452,-9.169 -18.903,-21.324 -31.655,-27.734c-26.166,-13.151 -54.919,-20.377 -83.85,-24.066c-20.906,-2.666 -48.034,-6.379 -70.406,-6.207c-30.642,0.236 -61.034,6.834 -90.379,15.182c-16.592,4.719 -35.951,11.464 -50.963,20.176c-31.278,18.151 -53.286,48.034 -77.459,73.891c-1.772,1.895 -3.829,-3.58 -5.232,-5.762c-4.387,-6.818 -9.456,-13.215 -13.414,-20.29c-7.34,-13.12 -13.339,-26.95 -20.429,-40.205c-3.459,-6.465 -12.321,-11.944 -19.396,-7.319c-7.406,4.841 -6.257,15.324 -2.569,22.017c10.113,18.358 23.807,36.182 27.134,57.564c1.236,7.947 -10.433,7.145 -10.271,14.686c0.204,9.494 12.257,15.164 8.621,25.323c-1.553,4.339 -6.778,7.289 -9.38,10.709c-4.617,6.071 -8.984,12.345 -13.033,18.809c-3.988,6.364 -7.244,13.353 -9.09,20.633c-2.545,10.037 -5.196,15.526 -6.349,25.04c-1.122,9.258 -20.841,104.009 -17.692,113.325c0.174,0.516 15.518,-65.608 15.896,-66c1.687,-1.749 5.523,-28.506 8.366,-31.672c7.525,-8.376 22.235,-11.989 32.521,-11.055c12.166,1.105 22.54,5.314 33.877,9.404c9.965,3.596 15.664,5.18 24.28,11.599c8.944,6.661 10.086,19.09 19.036,25.746c1.154,0.857 0.238,-2.994 1.046,-4.183c2.045,-3.01 4.526,-5.728 7.152,-8.247c9.935,-9.528 13.371,-11.421 25.586,-17.643c19.801,-10.084 36.847,-18.04 57.446,-26.387c6.861,-2.78 14.081,-4.653 20.844,-7.663c4.287,-1.908 7.995,-4.94 12.192,-7.039c15.272,-7.636 30.631,-15.111 46.188,-22.151c31.874,-14.424 32.377,-12.888 65.208,-24.798c13.043,-4.732 23.689,-10.051 37.3,-13.173c27.441,-6.294 55.906,-2.891 83.645,-2.574c15.364,0.175 30.074,-1.401 45.437,0.039c22.128,2.073 41.881,14.601 64.369,14.601" style="fill:#fff;stroke:#000;stroke-width:9.17px;"/><path d="M273.186,581.143c6.694,-0 46.126,16.12 52.165,18.165c9.386,3.178 5.351,2.087 14.307,6.538c15.683,7.795 38.518,16.883 54.723,23.668c31.097,13.019 65.188,16.081 98.521,17.062c11.954,0.352 23.919,0.237 35.874,0.535c5.678,0.142 39.493,-6.232 52.473,-9.638c12.357,-3.242 19.324,-5.078 29.886,-12.364c10.218,-7.048 21.937,-16.971 27.41,-28.731c4.938,-10.613 14.22,-21.628 16.991,-36.515c0.14,-0.752 -0.51,3.221 -0.629,3.977c-0.324,2.045 -1.306,3.997 -1.336,6.067c-0.105,7.465 1.238,14.918 0.934,22.378c-0.738,18.078 -11.994,33.264 -26.138,43.582c-7.012,5.115 -27.091,16.86 -35.339,19.882c-4.932,1.807 -10.313,3.052 -15.527,3.677c-25.728,3.084 -25.621,3.952 -51.498,4.985c-11.895,0.475 -40.976,0.549 -52.912,-0.166c-20.247,-1.213 -47.53,-5.744 -66.929,-11.779c-10.55,-3.283 -26.581,-10.041 -36.197,-15.134c-9.897,-5.243 -18.283,-8.731 -24.952,-18.383c-5.246,-7.591 -19.13,-13.217 -26.662,-18.42c-4.407,-3.046 -9.353,-5.232 -13.921,-8.032c-0.974,-0.597 -1.534,-2.142 -2.677,-2.142" style="fill:#fff;stroke:#000;stroke-width:9.17px;"/><path d="M267.307,109.771c7.277,-3.639 14.395,-7.616 21.832,-10.916c4.061,-1.803 8.347,-3.062 12.596,-4.362c3.7,-1.133 7.383,-2.546 11.234,-2.93c1.447,-0.145 3.333,3.074 3.855,3.855c3.449,5.159 6.964,10.276 10.304,15.506c4.136,6.475 8.369,12.899 12.121,19.603c6.312,11.275 16.577,21.816 17.241,34.721c0.071,1.396 0.172,3.1 -0.784,4.118c-0.912,0.971 -2.646,0.422 -3.9,0.87c-5.387,1.926 -10.787,3.86 -15.99,6.241c-4.876,2.232 -16.339,11.762 -23.528,7.546c-6.776,-3.974 -9.684,-15.663 -13.084,-22.069c-11.286,-21.265 -13.728,-24.995 -26.928,-45.119c-1.579,-2.407 -2.933,-5.029 -4.969,-7.064Z" style="fill:#fff;stroke:#000;stroke-width:9.17px;"/><path d="M486.022,47.782c0.973,1 19.644,20.193 21.122,21.712c5.071,5.212 10.05,10.514 14.992,15.849c6.527,7.044 7.871,5.546 13.707,13.278c3.823,5.065 5.567,7.374 9.972,13.21c5.196,6.884 8.422,8.109 12.731,15.489c3.868,6.627 8.775,11.778 11.137,19.276c0.73,2.319 0.217,4.86 0.428,7.282c0.075,0.865 0.428,3.439 0.428,2.57" style="fill:#fff;stroke:#000;stroke-width:9.17px;"/><path d="M133.364,275.037c5.162,-7.742 14.411,-11.098 20.838,-17.46c9.121,-9.027 16.851,-19.399 26.046,-28.351c21.847,-21.27 38.087,-32.685 62.803,-50.379c14.659,-10.495 33.716,-17.013 50.106,-25.282" style="fill:none;stroke:#000;stroke-width:9.17px;"/><path d="M340.681,132.398c2.773,-0.681 13.918,-4.955 16.203,-5.768c6.364,-2.266 14.523,-5.171 19.771,-7.04c2.457,-0.874 23.884,-6.005 27.372,-6.673c11.252,-2.156 21.903,-4.197 36.25,-6.946c7.795,-1.494 28.243,-2.767 34.589,-2.767c7.272,0 34.961,1.885 39.994,2.837c6.911,1.308 23.525,5.856 30.955,5.856" style="fill:none;stroke:#000;stroke-width:9.17px;"/><ellipse cx="34.424" cy="348.368" rx="29.5" ry="66" style="fill:#fff;stroke:#000;stroke-width:9.17px;"/><path d="M255.97,575.071c-0,-0 30.313,9.171 54.425,20.592c10.966,5.195 20.655,10.94 26.152,16.437c14.32,14.32 14.32,37.572 -0,51.892c-14.32,14.32 -37.572,14.32 -51.892,-0c-5.497,-5.497 -11.242,-15.186 -16.436,-26.153c-11.422,-24.111 -20.593,-54.425 -20.593,-54.425c-0.714,-2.361 -0.071,-4.924 1.674,-6.669c1.745,-1.745 4.308,-2.388 6.67,-1.674Z" style="fill:#fff;stroke:#000;stroke-width:9.17px;"/><path d="M151.44,519.812c0,0 21.638,6.549 38.849,14.701c8.01,3.794 15.067,8.02 19.082,12.035c10.911,10.91 10.911,28.627 -0,39.538c-10.911,10.911 -28.628,10.911 -39.539,0c-4.015,-4.015 -8.24,-11.072 -12.034,-19.081c-8.153,-17.212 -14.701,-38.849 -14.701,-38.849c-0.714,-2.362 -0.071,-4.925 1.674,-6.67c1.744,-1.744 4.307,-2.388 6.669,-1.674Z" style="fill:#fff;stroke:#000;stroke-width:9.17px;"/><path d="M132.254,277.036c6.784,-0 10.195,9.813 10.857,13.386c2.79,15.068 4.776,18.719 9.035,33.39c0.855,2.942 1.578,3.037 4.708,4.913c6.31,3.781 12.363,-0.738 17.375,-2.564c9.239,-3.367 18.786,-5.823 28.217,-8.611c49.096,-14.51 72.497,-21.946 122.638,-32.515c36.896,-7.778 116.253,-21.489 153.508,-27.241c52.545,-8.114 105.977,-11.228 159.062,-7.514c1.99,0.139 10.273,1.145 12.444,1.657c4.389,1.037 5.344,4.597 10.039,5.02c1.472,0.133 1.854,-3.324 1.903,-3.887c0.205,-2.319 0.421,-4.645 0.393,-6.972c-0.049,-4.194 -0.024,-8.415 -0.622,-12.566c-0.179,-1.234 -1.962,-2.133 -1.674,-3.346c0.47,-1.976 -0.01,27.743 1.088,26.035c0.754,-1.173 4.444,-30.536 4.769,-31.892c0.706,-2.952 0.316,-4.932 -0.361,-8.378c-1.768,-9.008 -2.611,-17.04 -8.252,-24.327c-5.843,-7.546 -14.051,-10.193 -23.045,-13.533c-5.407,-2.009 -12.36,-5.069 -17.803,-6.612c-24.091,-6.828 -44.244,-15.645 -69.388,-18.604c-8.123,-0.956 -20.344,-2.645 -28.492,-3.353c-21.191,-1.841 -38.585,-4.048 -59.976,-1.867c-83.628,8.524 -154.377,40.45 -225.924,74.675c-15.451,7.391 -30.596,15.405 -45.927,23.042c-12.319,6.137 -24.738,12.073 -37.023,18.278c-3.851,1.946 -8.406,4.427 -10.782,8.292c-4.167,6.778 0,10.938 0,17.48" style="fill:#fff;stroke:#000;stroke-width:9.17px;"/><circle cx="315.313" cy="643.028" r="31.703" style="fill:#fff;stroke:#000;stroke-width:9.17px;"/><path d="M144.942,319.999c-0.02,-4.41 0.735,-8.886 2.2,-13.045c3.937,-11.184 18.425,-10.88 27.055,-14.718c42.512,-18.904 84.424,-39.132 126.707,-58.543c30.352,-13.934 60.981,-27.712 93.511,-35.829c56.578,-14.117 116.624,-12.763 173.816,-3.4c11.614,1.901 23.004,5.009 34.411,7.904c19.098,4.848 40.243,9.314 55.226,23.352c10.011,9.379 9.683,24.654 11.399,36.928c3.186,22.798 9.622,62.415 10.413,85.505c2.105,61.413 -11.895,122.053 -30.887,180.028c-9.018,27.531 -24.072,55.183 -49.834,70.381c-23.816,14.049 -52.439,11.688 -78.752,9.67c-22.651,-1.738 -45.328,-3.212 -67.937,-5.433c-24.381,-2.395 -41.276,-5.353 -64.768,-12.398c-28.546,-8.56 -41.931,-15.384 -69.775,-25.837c-12.124,-4.551 -31.727,-10.293 -43.386,-16.096c-31.456,-15.656 -56.975,-40.777 -78.854,-67.799c-15.599,-19.267 -32.022,-39.055 -40.725,-62.682c-7.844,-21.297 -7.127,-44.527 -8.215,-66.76c-0.51,-10.41 -1.605,-20.805 -1.605,-31.228" style="fill:url(#_Linear1);stroke:#000;stroke-width:9.17px;"/><circle cx="193.554" cy="570.269" r="24" style="fill:#fff;stroke:#000;stroke-width:9.17px;"/></g><defs><linearGradient id="_Linear1" x1="0" y1="0" x2="1" y2="0" gradientUnits="userSpaceOnUse" gradientTransform="matrix(434.357,21,-21,434.357,221.924,386.368)"><stop offset="0" style="stop-color:#161616;stop-opacity:1"/><stop offset="0.64" style="stop-color:#212121;stop-opacity:1"/><stop offset="0.83" style="stop-color:#3e3e3e;stop-opacity:1"/><stop offset="1" style="stop-color:#5e5e5e;stop-opacity:1"/></linearGradient></defs></svg>